<svg width="38" height="39" viewBox="0 0 38 39" fill="none" xmlns="http://www.w3.org/2000/svg">
<g clip-path="url(#clip0_344_77)">
<path d="M35.5651 30.1802H15.3874C15.1317 30.1802 12.8665 30.1322 12.1101 28.4437C11.287 26.6135 12.9847 24.6374 13.5435 23.9881L13.5564 23.975L14.7319 22.6438L6.71588 3.20699L1.17985 2.64923C0.45991 2.57515 -0.0644653 1.92588 0.00645432 1.19599C0.0773739 0.466099 0.719948 -0.0676997 1.43989 0.00637847L7.75173 0.644758C8.23098 0.692691 8.6436 1.00426 8.83057 1.45308L17.4656 22.3911C17.6611 22.8639 17.5709 23.4086 17.2335 23.7898L15.5121 25.7377C14.7083 26.6745 14.5493 27.1648 14.517 27.3325C14.6976 27.4349 15.1209 27.5243 15.3874 27.5243H35.5651C36.2872 27.5243 36.8739 28.1191 36.8739 28.8511C36.8739 29.5832 36.2872 30.178 35.5651 30.178V30.1802Z" fill="#231F20"/>
<path d="M16.2556 24.2322C15.5937 24.2322 15.0242 23.7245 14.9554 23.0426C14.8824 22.3127 15.4046 21.6612 16.1245 21.585L33.8888 19.7243L35.2083 9.31415L9.86212 8.45789C9.14003 8.43393 8.57267 7.81951 8.59846 7.08745C8.6221 6.35538 9.22599 5.77583 9.95023 5.80415L36.7342 6.70834C37.1017 6.72141 37.4498 6.89136 37.6884 7.1746C37.9269 7.46002 38.0365 7.83259 37.9893 8.20298L36.3538 21.1057C36.2764 21.7157 35.795 22.1929 35.189 22.256L16.3932 24.2257C16.348 24.23 16.3029 24.2322 16.2578 24.2322H16.2556Z" fill="#231F20"/>
<path d="M32.767 39C30.6007 39 28.8385 37.2134 28.8385 35.0172C28.8385 32.821 30.6007 31.0344 32.767 31.0344C34.9333 31.0344 36.6955 32.821 36.6955 35.0172C36.6955 37.2134 34.9333 39 32.767 39ZM32.767 33.6903C32.0449 33.6903 31.4582 34.2852 31.4582 35.0172C31.4582 35.7493 32.0449 36.3441 32.767 36.3441C33.4891 36.3441 34.0758 35.7493 34.0758 35.0172C34.0758 34.2852 33.4891 33.6903 32.767 33.6903Z" fill="#231F20"/>
<path d="M15.9096 39C13.7434 39 11.9811 37.2134 11.9811 35.0172C11.9811 32.821 13.7434 31.0344 15.9096 31.0344C18.0759 31.0344 19.8381 32.821 19.8381 35.0172C19.8381 37.2134 18.0759 39 15.9096 39ZM15.9096 33.6903C15.1875 33.6903 14.6008 34.2852 14.6008 35.0172C14.6008 35.7493 15.1875 36.3441 15.9096 36.3441C16.6317 36.3441 17.2184 35.7493 17.2184 35.0172C17.2184 34.2852 16.6317 33.6903 15.9096 33.6903Z" fill="#231F20"/>
</g>
<defs>
<clipPath id="clip0_344_77">
<rect width="38" height="39" fill="white"/>
</clipPath>
</defs>
</svg>
