<svg width="36" height="39" viewBox="0 0 36 39" fill="none" xmlns="http://www.w3.org/2000/svg">
<g clip-path="url(#clip0_347_88)">
<path d="M18 22.5C24.2027 22.5 29.25 17.4527 29.25 11.25C29.25 5.0473 24.2027 0 18 0C11.7973 0 6.75 5.0473 6.75 11.25C6.75 17.4527 11.7973 22.5 18 22.5ZM18 3C22.5507 3 26.25 6.69933 26.25 11.25C26.25 15.8007 22.5507 19.5 18 19.5C13.4493 19.5 9.75 15.8007 9.75 11.25C9.75 6.69933 13.4493 3 18 3Z" fill="#F96441"/>
<path d="M26.9899 21.9274C26.1081 22.6723 25.1301 23.2956 24.0861 23.8074C28.8953 25.951 32.3868 30.5422 32.9291 36H3.07601C3.61824 30.5422 7.1098 25.951 11.9189 23.8074C10.8699 23.3007 9.89696 22.6723 9.0152 21.9274C3.63345 25.0439 0 30.8514 0 37.5V39H36V37.5C36 30.8514 32.3666 25.0439 26.9899 21.9274Z" fill="#375D96"/>
</g>
<defs>
<clipPath id="clip0_347_88">
<rect width="36" height="39" fill="white"/>
</clipPath>
</defs>
</svg>
